<?xml version="1.0" ?><!DOCTYPE svg  PUBLIC '-//W3C//DTD SVG 1.1//EN'  'http://www.w3.org/Graphics/SVG/1.1/DTD/svg11.dtd'><svg enable-background="new 0 0 48 48" height="48px" id="Layer_4" version="1.1" viewBox="0 0 48 48" width="48px" xml:space="preserve" xmlns="http://www.w3.org/2000/svg" xmlns:xlink="http://www.w3.org/1999/xlink"><g><path d="M22.367,24.263l1.485-1.484l-2.693-2.694l-1.484,1.486c-0.864-0.572-1.828-0.999-2.858-1.267v-2.22h-4.781   v2.22c-1.053,0.272-2.039,0.711-2.917,1.302l-1.425-1.425L5,22.873l1.449,1.449c-0.554,0.849-0.97,1.793-1.23,2.8H3v4.776h2.218   c0.267,1.031,0.694,1.998,1.267,2.862L5,36.245l2.693,2.691l1.485-1.484c0.866,0.573,1.834,1.002,2.867,1.269v2.216h4.761v-2.216   c1.01-0.26,1.957-0.678,2.808-1.231l1.544,1.543l2.693-2.691l-1.521-1.522c0.594-0.883,1.034-1.876,1.306-2.934h2.215v-4.747   h-2.215C23.371,26.103,22.943,25.131,22.367,24.263z M14.426,33.428c-2.163,0-3.917-1.754-3.917-3.917s1.754-3.917,3.917-3.917   s3.917,1.754,3.917,3.917S16.589,33.428,14.426,33.428z" fill="#241F20"/><path d="M37.94,31.42c-2.973-1.119-4.197-1.854-4.197-3.009c0-0.98,0.733-1.959,3.008-1.959   c2.521,0,4.129,0.805,5.039,1.19l1.015-3.954c-1.154-0.561-2.73-1.048-5.074-1.154v-3.08h-3.426v3.324   c-3.743,0.735-5.914,3.147-5.914,6.227c0,3.393,2.555,5.142,6.298,6.4c2.588,0.874,3.709,1.714,3.709,3.046   c0,1.397-1.364,2.167-3.358,2.167c-2.277,0-4.338-0.735-5.809-1.538l-1.051,4.093c1.33,0.769,3.604,1.398,5.947,1.504V48h3.43   v-3.566c4.022-0.701,6.227-3.358,6.227-6.472C43.783,34.812,42.103,32.889,37.94,31.42z" fill="#241F20"/><polygon fill="#241F20" points="9.875,5.672 9.875,4.797 9.875,3.859 28.766,3.859 29.812,3.859 29.884,3.859 29.884,4.81    29.884,5.828 29.884,11.984 32.75,11.984 37.059,11.984 37.938,11.984 37.938,14.25 37.938,15.167 37.938,17.766 41.842,17.766    41.842,15.167 41.842,14.25 41.842,11.984 41.842,9.422 32.446,0.025 29.884,0.025 5.967,0.025 5.967,17.766 9.875,17.766  "/></g></svg>